<svg fill="none" height="24" viewBox="0 0 24 24" width="24" xmlns="http://www.w3.org/2000/svg">
    <g clip-path="url(#clip0_4118_12214)">
        <path
            d="M15 7C15 8.65686 13.6568 10 12 10C10.3432 10 9 8.65686 9 7C9 5.34314 10.3432 4 12 4C13.6568 4 15 5.34314 15 7Z"
            stroke="#332E30" stroke-width="1.5" />
        <path
            d="M20.3149 17.9385C20.3378 17.9876 20.3601 18.0369 20.3819 18.0863C21.0491 19.6029 19.6569 21 18 21H12L6 21C4.34315 21 2.95092 19.6029 3.61814 18.0863C3.63989 18.0369 3.66221 17.9876 3.68508 17.9385C4.13738 16.9679 4.80031 16.086 5.63604 15.3431C6.47177 14.6003 7.46392 14.011 8.55585 13.609C9.64778 13.2069 10.8181 13 12 13C13.1819 13 14.3522 13.2069 15.4442 13.609C16.5361 14.011 17.5282 14.6003 18.364 15.3431C19.1997 16.086 19.8626 16.9679 20.3149 17.9385Z"
            stroke="#332E30" stroke-width="1.5" />
    </g>
    <defs>
        <clipPath id="clip0_4118_12214">
            <rect fill="white" height="24" width="24" />
        </clipPath>
    </defs>
</svg>
